# xmcd
#
# Track frame offsets: 
#        150
#        12837
#        24587
#        37075
#        51700
#        64612
#        75437
#        88350
#        101175
#        115287
#        127350
#        142125
#        157075
#        171325
#        183650
#        195962
#        206850
#        219262
#        232425
#        243975
#
# Disc length: 3414 seconds
#
# Revision: 2
# Processed by: cddbd v1.5.2PL0 Copyright (c) Steve Scherf et al.
# Submitted via: ExactAudioCopy v0.99pb5
#
DISCID=3a0d5414
DTITLE=Gene Autry - Gene Autry 20 Golden Cowboy Hits
DYEAR=1999
DGENRE=Country
TTITLE0=That Silver-Haired Daddy Of Mine
TTITLE1=Back In The Saddle Again
TTITLE2=At Mail Call Today
TTITLE3=The End Of The Trail
TTITLE4=The Yellow Rose Of Texas
TTITLE5=I'm Thinking Tonight Of My Blue Eyes
TTITLE6=I Wish I Had Never Met Sunshine
TTITLE7=You're The Only Star ( In My Blue Heaven)
TTITLE8=Mexicali Rose
TTITLE9=Buttons And Bows
TTITLE10=Tumbling Tumbleweeds
TTITLE11=The Last Roundup
TTITLE12=Nobody's Darling But Mine
TTITLE13=It Makes No Difference Now
TTITLE14=Have I Told You Lately That I Love You
TTITLE15=Red River Valley
TTITLE16=Deep In The Heart Of Texas
TTITLE17=South Of The Border (Down Mexico Way)
TTITLE18=Don't Fence Me In 
TTITLE19=Peter Cottontail
EXTD=
EXTT0=
EXTT1=
EXTT2=
EXTT3=
EXTT4=
EXTT5=
EXTT6=
EXTT7=
EXTT8=
EXTT9=
EXTT10=
EXTT11=
EXTT12=
EXTT13=
EXTT14=
EXTT15=
EXTT16=
EXTT17=
EXTT18=
EXTT19=
PLAYORDER=
